# xmcd CD database file
#
# Track frame offsets:
#	183
#	11923
#	23480
#	34308
#	44228
#	57095
#	72288
#	84050
#	101153
#	112428
#	124448
#	136473
#	146575
#
# Disc length: 2232 seconds
#
# Revision: 0
# Processed by: cddbd v1.5.1PL2 Copyright (c) Steve Scherf et al.
# Submitted via: CDex 1.51
#
DISCID=c308b60d
DTITLE=diverse - Stars and Trucks  Folge 10
DYEAR=1900
DGENRE=Country
TTITLE0=Johnny Tillotson - Heartaches By The Number
TTITLE1=Sandy Posey - The Twelfth Of Never
TTITLE2=Billy Walker - When A Man Loves a Woman
TTITLE3=Willie Nelson - Broken Promises
TTITLE4=Kenny Rogers - Ruby, Don't Take Your Love To Town
TTITLE5=Hill's Angels - Ring Of Fire
TTITLE6=Dave Dudley - Six Days On The Road
TTITLE7=Bobby Bare - Sylvia's Mother
TTITLE8=Freddy Quinn - Jambalaya
TTITLE9=Ferlin Husky - I Could Sing All Night
TTITLE10=Mel Tillis and The Statesiders - I Can't Stop Loving You
TTITLE11=Conway Twitty - It's Only Make Believe
TTITLE12=Tompal and The Glaser Bros - Faded Love
EXTD=
EXTT0=
EXTT1=
EXTT2=
EXTT3=
EXTT4=
EXTT5=
EXTT6=
EXTT7=
EXTT8=
EXTT9=
EXTT10=
EXTT11=
EXTT12=
PLAYORDER=
